<svg width="125" height="124" viewBox="0 0 125 124" fill="none" xmlns="http://www.w3.org/2000/svg">
<path d="M40.8124 30.0292C42.0169 30.0456 42.0169 30.0456 43.2458 30.0624C53.7768 30.4421 61.8179 34.1597 69.3984 41.4784C73.1512 45.6218 75.967 49.3031 76.8124 54.9042C76.3124 57.5917 76.3124 57.5917 75.1249 59.4667C72.6233 61.0194 71.2271 60.9704 68.3124 60.5917C65.9609 58.6581 65.9609 58.6581 63.6874 56.1542C60.5279 52.5825 60.5279 52.5825 56.3124 50.5917C54.8381 50.5786 53.3627 50.6227 51.8906 50.7049C50.5989 50.7504 50.5989 50.7504 49.2812 50.7967C47.4834 50.8678 45.6863 50.9586 43.8906 51.0702C39.0308 51.204 36.0599 50.92 32.2343 47.7596C29.1121 44.7881 28.395 42.4993 27.9999 38.1542C28.3124 34.5917 28.3124 34.5917 29.8007 32.4042C33.3344 29.8542 36.6122 29.9491 40.8124 30.0292Z" fill="#F46525"/>
<path d="M58.9934 57C62.5917 57.9895 64.109 59.8639 66.4934 62.6875C67.1122 63.925 67.1122 63.925 67.7434 65.1875C70.0524 68.4861 72.7571 69.6545 76.3372 71.3789C78.7907 72.8679 80.0236 74.2331 81.4934 76.6875C81.4934 80.4388 80.9313 82.1508 78.5559 85.0625C74.1009 87.4264 70.4274 87.6392 65.4934 86.6875C59.694 84.2124 55 80.8302 53.1536 74.832C50.4271 65.9751 50.4271 65.9751 52.3801 61.7852C54.269 59.2528 55.9408 57.8395 58.9934 57Z" fill="#F46525"/>
<path d="M30.5 87.8865C31.4895 84.2882 33.3639 82.7709 36.1875 80.3865C37.425 79.7677 37.425 79.7677 38.6875 79.1365C41.9861 76.8275 43.1545 74.1227 44.8789 70.5427C46.3679 68.0892 47.7331 66.8563 50.1875 65.3865C48.9388 67.3865 52 75 52.5 77.5C53 79.5 57 82.5 58.1875 84.3865C55.7124 90.1859 54.2047 91.3121 48.332 93.7263C39.4751 96.4528 39.4751 96.4528 35.2852 94.4998C32.7528 92.6109 31.3395 90.9391 30.5 87.8865Z" fill="#F46525"/>
<path d="M82.2501 31.1543C83.2903 31.135 84.3306 31.1156 85.4024 31.0957C88.9736 31.7045 90.1338 32.7486 92.3126 35.5918C92.9433 39.2971 92.5557 41.1054 90.8751 44.4668C87.6202 47.166 85.6347 47.25 81.504 47.0254C78.2963 46.3907 76.5235 44.9409 74.3126 42.5918C72.9132 39.7931 73.0599 37.6868 73.3126 34.5918C75.7185 31.0937 78.189 31.1593 82.2501 31.1543Z" fill="#F46525"/>
</svg>
