<svg width="204" height="44" viewBox="0 0 204 44" fill="none" xmlns="http://www.w3.org/2000/svg">
<path d="M7.64255 6.13968C8.36103 6.14807 8.36103 6.14807 9.09403 6.15663C15.3757 6.35042 20.1721 8.24794 24.6938 11.9834C26.9324 14.0982 28.612 15.9772 29.1163 18.836C28.818 20.2077 28.818 20.2077 28.1097 21.1647C26.6175 21.9572 25.7847 21.9322 24.0461 21.7389C22.6434 20.752 22.6434 20.752 21.2873 19.474C19.4027 17.651 19.4027 17.651 16.8882 16.6349C16.0087 16.6282 15.1287 16.6507 14.2506 16.6927C13.4801 16.7159 13.4801 16.7159 12.6941 16.7395C11.6217 16.7758 10.5498 16.8222 9.47863 16.8791C6.5798 16.9474 4.80772 16.8024 2.52577 15.1894C0.663371 13.6727 0.235624 12.5045 0 10.2867C0.186404 8.4684 0.186404 8.4684 1.07415 7.35189C3.18198 6.05036 5.13712 6.09882 7.64255 6.13968Z" fill="#F46525"/>
<path d="M18.488 19.9058C20.6343 20.4109 21.5394 21.3676 22.9617 22.8088C23.3307 23.4404 23.3307 23.4404 23.7073 24.0848C25.0846 25.7684 26.6979 26.3648 28.8334 27.2449C30.2969 28.0049 31.0323 28.7017 31.909 29.9544C31.909 31.8691 31.5737 32.7429 30.1568 34.2291C27.4995 35.4356 25.3082 35.5442 22.3652 35.0585C18.9059 33.7951 16.1059 32.0689 15.0046 29.0074C13.3782 24.4868 13.3782 24.4868 14.5432 22.3482C15.6699 21.0557 16.6671 20.3343 18.488 19.9058Z" fill="#F46525"/>
<path d="M1.49158 35.6704C2.08182 33.8338 3.19985 33.0594 4.88413 31.8424C5.62228 31.5265 5.62228 31.5265 6.37536 31.2044C8.34295 30.0258 9.03991 28.6453 10.0685 26.8181C10.9567 25.5658 11.771 24.9365 13.235 24.1863C12.4902 25.2071 14.3162 29.0931 14.6144 30.3691C14.9126 31.3899 17.2986 32.9211 18.0069 33.884C16.5306 36.844 15.6313 37.4189 12.1282 38.6511C6.84515 40.0427 6.84515 40.0427 4.34588 39.0458C2.83534 38.0818 1.99231 37.2285 1.49158 35.6704Z" fill="#F46525"/>
<path d="M32.3598 6.7141C32.9803 6.70423 33.6008 6.69436 34.2401 6.68419C36.3703 6.99491 37.0624 7.52782 38.362 8.97901C38.7382 10.8702 38.5071 11.7932 37.5045 13.5089C35.563 14.8865 34.3787 14.9294 31.9148 14.8148C30.0014 14.4908 28.944 13.7508 27.6251 12.5518C26.7904 11.1234 26.8779 10.0483 27.0287 8.46861C28.4638 6.68318 29.9374 6.71666 32.3598 6.7141Z" fill="#F46525"/>
<path d="M55.0482 35.324C52.5522 35.324 50.6082 34.712 49.2162 33.488C47.8242 32.24 47.1282 30.368 47.1282 27.872V11.132H53.9682V27.8C53.9682 28.496 54.1602 29.048 54.5442 29.456C54.9282 29.84 55.4202 30.032 56.0202 30.032C56.8362 30.032 57.5322 29.828 58.1082 29.42L59.8002 34.208C59.2242 34.592 58.5162 34.868 57.6762 35.036C56.8362 35.228 55.9602 35.324 55.0482 35.324ZM44.2842 20.564V15.488H58.4322V20.564H44.2842ZM70.6458 35.324C69.0618 35.324 67.6338 35.012 66.3618 34.388C65.1138 33.764 64.1298 32.792 63.4098 31.472C62.7138 30.128 62.3658 28.436 62.3658 26.396V15.488H69.2058V25.28C69.2058 26.792 69.4818 27.872 70.0338 28.52C70.6098 29.168 71.4138 29.492 72.4458 29.492C73.1178 29.492 73.7298 29.336 74.2818 29.024C74.8338 28.712 75.2778 28.22 75.6138 27.548C75.9498 26.852 76.1178 25.964 76.1178 24.884V15.488H82.9578V35H76.4418V29.492L77.7018 31.04C77.0298 32.48 76.0578 33.56 74.7858 34.28C73.5138 34.976 72.1338 35.324 70.6458 35.324ZM87.3636 35V15.488H93.8796V20.924L92.5836 19.376C93.3036 17.984 94.2876 16.94 95.5356 16.244C96.7836 15.524 98.1756 15.164 99.7116 15.164C101.464 15.164 103 15.62 104.32 16.532C105.664 17.42 106.564 18.812 107.02 20.708L104.788 20.24C105.484 18.656 106.528 17.42 107.92 16.532C109.336 15.62 110.956 15.164 112.78 15.164C114.292 15.164 115.636 15.476 116.812 16.1C118.012 16.7 118.948 17.636 119.62 18.908C120.316 20.18 120.664 21.824 120.664 23.84V35H113.824V24.956C113.824 23.564 113.56 22.556 113.032 21.932C112.504 21.284 111.784 20.96 110.872 20.96C110.224 20.96 109.636 21.116 109.108 21.428C108.58 21.74 108.172 22.22 107.884 22.868C107.596 23.492 107.452 24.308 107.452 25.316V35H100.612V24.956C100.612 23.564 100.348 22.556 99.8196 21.932C99.3156 21.284 98.5956 20.96 97.6596 20.96C96.9876 20.96 96.3876 21.116 95.8596 21.428C95.3556 21.74 94.9476 22.22 94.6356 22.868C94.3476 23.492 94.2036 24.308 94.2036 25.316V35H87.3636ZM129.273 35L122.325 15.488H128.805L134.313 31.796H131.217L136.941 15.488H142.773L148.281 31.796H145.257L150.945 15.488H156.957L150.009 35H143.385L138.705 21.5H140.721L135.897 35H129.273ZM170.225 35V31.364L169.757 30.464V23.768C169.757 22.688 169.421 21.86 168.749 21.284C168.101 20.684 167.057 20.384 165.617 20.384C164.681 20.384 163.733 20.54 162.773 20.852C161.813 21.14 160.997 21.548 160.325 22.076L158.021 17.432C159.125 16.712 160.445 16.16 161.981 15.776C163.541 15.368 165.089 15.164 166.625 15.164C169.793 15.164 172.241 15.896 173.969 17.36C175.721 18.8 176.597 21.068 176.597 24.164V35H170.225ZM164.465 35.324C162.905 35.324 161.585 35.06 160.505 34.532C159.425 34.004 158.597 33.284 158.021 32.372C157.469 31.46 157.193 30.44 157.193 29.312C157.193 28.112 157.493 27.08 158.093 26.216C158.717 25.328 159.665 24.656 160.937 24.2C162.209 23.72 163.853 23.48 165.869 23.48H170.477V27.044H166.805C165.701 27.044 164.921 27.224 164.465 27.584C164.033 27.944 163.817 28.424 163.817 29.024C163.817 29.624 164.045 30.104 164.501 30.464C164.957 30.824 165.581 31.004 166.373 31.004C167.117 31.004 167.789 30.824 168.389 30.464C169.013 30.08 169.469 29.504 169.757 28.736L170.693 31.256C170.333 32.6 169.625 33.62 168.569 34.316C167.537 34.988 166.169 35.324 164.465 35.324Z" fill="black"/>
<path d="M183.794 35.324C182.642 35.324 181.67 34.94 180.878 34.172C180.086 33.404 179.69 32.432 179.69 31.256C179.69 30.032 180.086 29.06 180.878 28.34C181.67 27.596 182.642 27.224 183.794 27.224C184.946 27.224 185.918 27.596 186.71 28.34C187.502 29.06 187.898 30.032 187.898 31.256C187.898 32.432 187.502 33.404 186.71 34.172C185.918 34.94 184.946 35.324 183.794 35.324Z" fill="#F46525"/>
</svg>
