<svg width="342" height="86" viewBox="0 0 342 86" fill="none" xmlns="http://www.w3.org/2000/svg">
<path d="M12.8125 12.0292C14.017 12.0456 14.017 12.0456 15.2458 12.0624C25.7768 12.4421 33.8179 16.1597 41.3984 23.4784C45.1513 27.6218 47.967 31.3031 48.8125 36.9042C48.3125 39.5917 48.3125 39.5917 47.125 41.4667C44.6233 43.0194 43.2272 42.9704 40.3125 42.5917C37.9609 40.6581 37.9609 40.6581 35.6875 38.1542C32.5279 34.5825 32.5279 34.5825 28.3125 32.5917C26.8381 32.5786 25.3628 32.6227 23.8906 32.7049C22.599 32.7504 22.599 32.7504 21.2812 32.7967C19.4835 32.8678 17.6863 32.9586 15.8906 33.0702C11.0308 33.204 8.05999 32.92 4.23438 29.7596C1.11212 26.7881 0.395016 24.4993 0 20.1542C0.3125 16.5917 0.3125 16.5917 1.80078 14.4042C5.33449 11.8542 8.61222 11.9491 12.8125 12.0292Z" fill="#F46525"/>
<path d="M30.9934 39C34.5917 39.9895 36.109 41.8639 38.4934 44.6875C39.1122 45.925 39.1122 45.925 39.7434 47.1875C42.0524 50.4861 44.7571 51.6545 48.3372 53.3789C50.7907 54.8679 52.0236 56.2331 53.4934 58.6875C53.4934 62.4388 52.9313 64.1508 50.5559 67.0625C46.1009 69.4264 42.4274 69.6392 37.4934 68.6875C31.694 66.2124 27 62.8302 25.1536 56.832C22.4271 47.9751 22.4271 47.9751 24.3801 43.7852C26.269 41.2528 27.9408 39.8395 30.9934 39Z" fill="#F46525"/>
<path d="M2.5 69.8865C3.48953 66.2882 5.36387 64.7709 8.1875 62.3865C9.425 61.7677 9.425 61.7677 10.6875 61.1365C13.9861 58.8275 15.1545 56.1227 16.8789 52.5427C18.3679 50.0892 19.7331 48.8563 22.1875 47.3865C20.9388 49.3865 24 57 24.5 59.5C25 61.5 29 64.5 30.1875 66.3865C27.7124 72.1859 26.2047 73.3121 20.332 75.7263C11.4751 78.4528 11.4751 78.4528 7.28516 76.4998C4.75277 74.6109 3.33947 72.9391 2.5 69.8865Z" fill="#F46525"/>
<path d="M54.2501 13.1543C55.2903 13.135 56.3306 13.1156 57.4024 13.0957C60.9735 13.7045 62.1338 14.7486 64.3126 17.5918C64.9433 21.2971 64.5557 23.1054 62.8751 26.4668C59.6202 29.166 57.6347 29.25 53.504 29.0254C50.2963 28.3907 48.5235 26.9409 46.3126 24.5918C44.9132 21.7931 45.0599 19.6868 45.3126 16.5918C47.7185 13.0937 50.189 13.1593 54.2501 13.1543Z" fill="#F46525"/>
<path d="M93.392 62.576C88.9547 62.576 85.4987 61.488 83.024 59.312C80.5493 57.0933 79.312 53.7653 79.312 49.328V19.568H91.472V49.2C91.472 50.4373 91.8133 51.4187 92.496 52.144C93.1787 52.8267 94.0533 53.168 95.12 53.168C96.5707 53.168 97.808 52.8053 98.832 52.08L101.84 60.592C100.816 61.2747 99.5573 61.7653 98.064 62.064C96.5707 62.4053 95.0133 62.576 93.392 62.576ZM74.256 36.336V27.312H99.408V36.336H74.256ZM121.121 62.576C118.305 62.576 115.766 62.0213 113.505 60.912C111.286 59.8027 109.537 58.0747 108.257 55.728C107.02 53.3387 106.401 50.3307 106.401 46.704V27.312H118.561V44.72C118.561 47.408 119.052 49.328 120.033 50.48C121.057 51.632 122.486 52.208 124.321 52.208C125.516 52.208 126.604 51.9307 127.585 51.376C128.566 50.8213 129.356 49.9467 129.953 48.752C130.55 47.5147 130.849 45.936 130.849 44.016V27.312H143.009V62H131.425V52.208L133.665 54.96C132.47 57.52 130.742 59.44 128.481 60.72C126.22 61.9573 123.766 62.576 121.121 62.576ZM150.842 62V27.312H162.426V36.976L160.122 34.224C161.402 31.7493 163.151 29.8933 165.37 28.656C167.588 27.376 170.063 26.736 172.794 26.736C175.908 26.736 178.639 27.5467 180.986 29.168C183.375 30.7467 184.975 33.2213 185.786 36.592L181.818 35.76C183.055 32.944 184.911 30.7467 187.386 29.168C189.903 27.5467 192.783 26.736 196.026 26.736C198.714 26.736 201.103 27.2907 203.194 28.4C205.327 29.4667 206.991 31.1307 208.186 33.392C209.423 35.6533 210.042 38.576 210.042 42.16V62H197.882V44.144C197.882 41.6693 197.412 39.8773 196.474 38.768C195.535 37.616 194.255 37.04 192.634 37.04C191.482 37.04 190.436 37.3173 189.498 37.872C188.559 38.4267 187.834 39.28 187.322 40.432C186.81 41.5413 186.554 42.992 186.554 44.784V62H174.394V44.144C174.394 41.6693 173.924 39.8773 172.986 38.768C172.09 37.616 170.81 37.04 169.146 37.04C167.951 37.04 166.884 37.3173 165.946 37.872C165.05 38.4267 164.324 39.28 163.77 40.432C163.258 41.5413 163.002 42.992 163.002 44.784V62H150.842ZM225.348 62L212.995 27.312H224.516L234.308 56.304H228.804L238.98 27.312H249.347L259.14 56.304H253.764L263.876 27.312H274.564L262.212 62H250.436L242.116 38H245.7L237.124 62H225.348ZM298.151 62V55.536L297.319 53.936V42.032C297.319 40.112 296.721 38.64 295.527 37.616C294.375 36.5493 292.519 36.016 289.958 36.016C288.295 36.016 286.609 36.2933 284.903 36.848C283.196 37.36 281.745 38.0853 280.551 39.024L276.455 30.768C278.417 29.488 280.764 28.5067 283.495 27.824C286.268 27.0987 289.02 26.736 291.751 26.736C297.383 26.736 301.735 28.0373 304.807 30.64C307.921 33.2 309.479 37.232 309.479 42.736V62H298.151ZM287.911 62.576C285.137 62.576 282.791 62.1067 280.871 61.168C278.951 60.2293 277.479 58.9493 276.455 57.328C275.473 55.7067 274.983 53.8933 274.983 51.888C274.983 49.7547 275.516 47.92 276.583 46.384C277.692 44.8053 279.377 43.6107 281.639 42.8C283.9 41.9467 286.823 41.52 290.407 41.52H298.599V47.856H292.071C290.108 47.856 288.721 48.176 287.911 48.816C287.143 49.456 286.759 50.3093 286.759 51.376C286.759 52.4427 287.164 53.296 287.975 53.936C288.785 54.576 289.895 54.896 291.303 54.896C292.625 54.896 293.82 54.576 294.887 53.936C295.996 53.2533 296.807 52.2293 297.319 50.864L298.983 55.344C298.343 57.7333 297.084 59.5467 295.207 60.784C293.372 61.9787 290.94 62.576 287.911 62.576Z" fill="#FAFAFA"/>
<path d="M322.274 62.576C320.226 62.576 318.498 61.8933 317.09 60.528C315.682 59.1627 314.978 57.4347 314.978 55.344C314.978 53.168 315.682 51.44 317.09 50.16C318.498 48.8373 320.226 48.176 322.274 48.176C324.322 48.176 326.05 48.8373 327.458 50.16C328.866 51.44 329.57 53.168 329.57 55.344C329.57 57.4347 328.866 59.1627 327.458 60.528C326.05 61.8933 324.322 62.576 322.274 62.576Z" fill="#F46525"/>
</svg>
